<?xml version="1.0" encoding="UTF-8" standalone="no"?>
<!DOCTYPE svg PUBLIC "-//W3C//DTD SVG 1.1//EN"
 "http://www.w3.org/Graphics/SVG/1.1/DTD/svg11.dtd">
<!-- Generated by graphviz version 14.1.2 (20260124.0452)
 -->
<!-- Title: G Pages: 1 -->
<svg width="331pt" height="260pt"
 viewBox="0.00 0.00 331.00 260.00" xmlns="http://www.w3.org/2000/svg" xmlns:xlink="http://www.w3.org/1999/xlink">
<g id="graph0" class="graph" transform="scale(1 1) rotate(0) translate(4 256)">
<title>G</title><style>.edge>path:hover{stroke-width:8}</style>
<polygon fill="white" stroke="none" points="-4,4 -4,-256 326.72,-256 326.72,4 -4,4"/>
<!-- flask -->
<g id="node1" class="node">
<title>flask</title><style>.edge>path:hover{stroke-width:8}</style>
<ellipse fill="#c04040" stroke="black" cx="27" cy="-162" rx="27" ry="18"/>
<text xml:space="preserve" text-anchor="middle" x="27" y="-158.5" font-family="Helvetica,sans-Serif" font-size="10.00" fill="#ffffff">flask</text>
</g>
<!-- src_app -->
<g id="node4" class="node">
<title>src_app</title><style>.edge>path:hover{stroke-width:8}</style>
<ellipse fill="#404096" stroke="black" cx="155" cy="-18" rx="29.01" ry="18"/>
<text xml:space="preserve" text-anchor="middle" x="155" y="-14.5" font-family="Helvetica,sans-Serif" font-size="10.00" fill="#ffffff">src.app</text>
</g>
<!-- flask&#45;&gt;src_app -->
<g id="edge1" class="edge">
<title>flask&#45;&gt;src_app</title><style>.edge>path:hover{stroke-width:8}</style>
<path fill="none" stroke="black" d="M26.39,-143.74C26.6,-124.32 29.73,-92.77 46,-72 63.58,-49.54 93.1,-36.01 116.99,-28.25"/>
<polygon fill="#c04040" stroke="black" points="117.83,-31.65 126.39,-25.41 115.81,-24.95 117.83,-31.65"/>
</g>
<!-- psycopg -->
<g id="node2" class="node">
<title>psycopg</title><style>.edge>path:hover{stroke-width:8}</style>
<ellipse fill="#26d926" stroke="black" cx="291" cy="-234" rx="31.72" ry="18"/>
<text xml:space="preserve" text-anchor="middle" x="291" y="-230.5" font-family="Helvetica,sans-Serif" font-size="10.00" fill="#000000">psycopg</text>
</g>
<!-- psycopg&#45;&gt;src_app -->
<g id="edge2" class="edge">
<title>psycopg&#45;&gt;src_app</title><style>.edge>path:hover{stroke-width:8}</style>
<path fill="none" stroke="black" d="M287,-161C268.71,-124.93 293.16,-103.67 268,-72 249.42,-48.61 218.07,-35.04 193.1,-27.5"/>
<polygon fill="#26d926" stroke="black" points="194.18,-24.16 183.6,-24.85 192.3,-30.91 194.18,-24.16"/>
</g>
<!-- src_load_data -->
<g id="node5" class="node">
<title>src_load_data</title><style>.edge>path:hover{stroke-width:8}</style>
<ellipse fill="#3d3db8" stroke="black" cx="100" cy="-90" rx="44.8" ry="18"/>
<text xml:space="preserve" text-anchor="middle" x="100" y="-86.5" font-family="Helvetica,sans-Serif" font-size="10.00" fill="#ffffff">src.load_data</text>
</g>
<!-- psycopg&#45;&gt;src_load_data -->
<g id="edge3" class="edge">
<title>psycopg&#45;&gt;src_load_data</title><style>.edge>path:hover{stroke-width:8}</style>
<path fill="none" stroke="black" d="M293.73,-215.61C295.21,-200.8 295.31,-179.39 287,-163"/>
<path fill="none" stroke="black" d="M287,-161C283.59,-154.28 198.41,-124.35 144.21,-105.87"/>
<polygon fill="#26d926" stroke="black" points="145.51,-102.62 134.91,-102.71 143.26,-109.25 145.51,-102.62"/>
</g>
<!-- src_query_data -->
<g id="node6" class="node">
<title>src_query_data</title><style>.edge>path:hover{stroke-width:8}</style>
<ellipse fill="#3d3db8" stroke="black" cx="211" cy="-90" rx="48.41" ry="18"/>
<text xml:space="preserve" text-anchor="middle" x="211" y="-86.5" font-family="Helvetica,sans-Serif" font-size="10.00" fill="#ffffff">src.query_data</text>
</g>
<!-- psycopg&#45;&gt;src_query_data -->
<g id="edge4" class="edge">
<title>psycopg&#45;&gt;src_query_data</title><style>.edge>path:hover{stroke-width:8}</style>
<path fill="none" stroke="black" d="M287,-161C277.17,-141.61 259.61,-124.89 243.84,-112.65"/>
<polygon fill="#26d926" stroke="black" points="246.17,-110.03 236.05,-106.89 242.01,-115.65 246.17,-110.03"/>
</g>
<!-- psycopg_sql -->
<g id="node3" class="node">
<title>psycopg_sql</title><style>.edge>path:hover{stroke-width:8}</style>
<ellipse fill="#47c247" stroke="black" cx="200" cy="-234" rx="41.19" ry="18"/>
<text xml:space="preserve" text-anchor="middle" x="200" y="-230.5" font-family="Helvetica,sans-Serif" font-size="10.00" fill="#000000">psycopg.sql</text>
</g>
<!-- psycopg_sql&#45;&gt;src_load_data -->
<g id="edge5" class="edge">
<title>psycopg_sql&#45;&gt;src_load_data</title><style>.edge>path:hover{stroke-width:8}</style>
<path fill="none" stroke="black" d="M207,-161C199.55,-133.23 172.26,-115.65 147.11,-105.05"/>
<polygon fill="#47c247" stroke="black" points="148.52,-101.84 137.93,-101.47 145.98,-108.36 148.52,-101.84"/>
<path fill="none" stroke="black" d="M205.12,-215.75C208.57,-201.41 211.71,-180.58 207,-163"/>
</g>
<!-- psycopg_sql&#45;&gt;src_query_data -->
<g id="edge6" class="edge">
<title>psycopg_sql&#45;&gt;src_query_data</title><style>.edge>path:hover{stroke-width:8}</style>
<path fill="none" stroke="black" d="M207,-161C203.4,-147.59 203.81,-132.23 205.36,-119.32"/>
<polygon fill="#47c247" stroke="black" points="208.77,-120.19 206.8,-109.78 201.85,-119.14 208.77,-120.19"/>
</g>
<!-- src_load_data&#45;&gt;src_app -->
<g id="edge7" class="edge">
<title>src_load_data&#45;&gt;src_app</title><style>.edge>path:hover{stroke-width:8}</style>
<path fill="none" stroke="black" d="M113.03,-72.41C119.8,-63.8 128.2,-53.11 135.7,-43.56"/>
<polygon fill="#3d3db8" stroke="black" points="138.45,-45.73 141.88,-35.7 132.95,-41.4 138.45,-45.73"/>
</g>
<!-- src_query_data&#45;&gt;src_app -->
<g id="edge8" class="edge">
<title>src_query_data&#45;&gt;src_app</title><style>.edge>path:hover{stroke-width:8}</style>
<path fill="none" stroke="black" d="M197.73,-72.41C190.77,-63.71 182.11,-52.89 174.41,-43.26"/>
<polygon fill="#3d3db8" stroke="black" points="177.33,-41.31 168.35,-35.69 171.87,-45.69 177.33,-41.31"/>
</g>
</g>
</svg>
